<?xml version="1.0" encoding="utf-8"?>
<!-- Generator: Adobe Illustrator 24.0.1, SVG Export Plug-In . SVG Version: 6.00 Build 0)  -->
<svg version="1.1" id="Layer_1" xmlns="http://www.w3.org/2000/svg" xmlns:xlink="http://www.w3.org/1999/xlink" x="0px" y="0px"
	 viewBox="0 0 215 32" style="enable-background:new 0 0 215 32;" xml:space="preserve">
<style type="text/css">
	.st0{fill:#737380;}
	.st1{fill-rule:evenodd;clip-rule:evenodd;fill:#121214;}
	.st2{fill:#A8A8B3;}
	.st3{fill:#FFFFFF;}
</style>
<path class="st0" d="M49,17.6c0-2,0.5-3.5,1.4-4.7c0.9-1.2,2.2-1.8,3.7-1.8c1.4,0,2.6,0.5,3.4,1.5l0.1-1.3h2.6v12.3
	c0,1.7-0.5,3-1.6,3.9c-1,1-2.4,1.4-4.2,1.4c-0.9,0-1.8-0.2-2.7-0.6c-0.9-0.4-1.6-0.9-2-1.5l1.3-1.7c0.9,1,2,1.6,3.2,1.6
	c0.9,0,1.7-0.3,2.2-0.8c0.5-0.5,0.8-1.3,0.8-2.3v-0.9c-0.8,0.9-1.9,1.4-3.3,1.4c-1.5,0-2.7-0.6-3.6-1.8C49.4,21.3,49,19.7,49,17.6z
	 M51.8,17.8c0,1.3,0.3,2.3,0.8,3c0.5,0.7,1.2,1.1,2.2,1.1c1.1,0,2-0.5,2.6-1.5v-5.6c-0.5-1-1.4-1.4-2.5-1.4c-0.9,0-1.7,0.4-2.2,1.1
	C52.1,15.3,51.8,16.4,51.8,17.8z M66.1,24h-2.8V11.3h2.8V24z M63.1,8c0-0.4,0.1-0.8,0.4-1.1c0.3-0.3,0.7-0.4,1.2-0.4
	s0.9,0.1,1.2,0.4c0.3,0.3,0.4,0.7,0.4,1.1c0,0.4-0.1,0.8-0.4,1.1c-0.3,0.3-0.7,0.4-1.2,0.4s-0.9-0.1-1.2-0.4
	C63.2,8.8,63.1,8.5,63.1,8z M72.8,8.2v3.1H75v2.1h-2.2v7.1c0,0.5,0.1,0.8,0.3,1.1c0.2,0.2,0.5,0.3,1,0.3c0.3,0,0.7,0,1-0.1V24
	c-0.6,0.2-1.3,0.3-1.9,0.3c-2.2,0-3.3-1.2-3.3-3.6v-7.2h-2.1v-2.1h2.1V8.2H72.8z M80,12.7c0.9-1.1,2.1-1.6,3.5-1.6
	c2.7,0,4.1,1.5,4.1,4.6V24h-2.8v-8.2c0-0.9-0.2-1.5-0.6-1.9c-0.4-0.4-0.9-0.6-1.7-0.6c-1.1,0-2,0.5-2.6,1.5V24h-2.8V6H80V12.7z
	 M98.2,22.8c-0.8,1-2,1.5-3.6,1.5c-1.4,0-2.4-0.4-3.1-1.2c-0.7-0.8-1.1-2-1.1-3.5v-8.2h2.8v8.2c0,1.6,0.7,2.4,2,2.4
	c1.4,0,2.3-0.5,2.8-1.5v-9.1h2.8V24h-2.7L98.2,22.8z M115,17.8c0,2-0.4,3.5-1.3,4.7c-0.9,1.2-2.1,1.7-3.6,1.7
	c-1.5,0-2.6-0.5-3.5-1.6l-0.1,1.4h-2.6V6h2.8v6.5c0.8-1,1.9-1.5,3.3-1.5c1.5,0,2.8,0.6,3.6,1.7c0.9,1.1,1.3,2.8,1.3,4.8V17.8z
	 M112.2,17.5c0-1.4-0.2-2.4-0.7-3.1c-0.5-0.7-1.2-1-2.1-1c-1.2,0-2.1,0.5-2.6,1.6v5.2c0.5,1.1,1.4,1.7,2.6,1.7c0.9,0,1.6-0.3,2.1-1
	c0.5-0.7,0.7-1.7,0.8-3V17.5z"/>
<path class="st1" d="M0,16C0,7.2,7.2,0,16,0c8.8,0,16,7.2,16,16c0,8.8-7.2,16-16,16C7.2,32,0,24.8,0,16z"/>
<g>
	<path class="st2" d="M126.7,26.6H116V24h10.7V26.6z"/>
	<path class="st2" d="M134.9,20.5c0-0.4-0.2-0.7-0.6-1s-1.1-0.5-2-0.6c-3-0.6-4.5-1.9-4.5-3.8c0-1.1,0.5-2.1,1.4-2.8
		s2.2-1.1,3.7-1.1c1.6,0,2.9,0.4,3.9,1.1s1.4,1.7,1.4,3h-3.4c0-0.5-0.2-0.9-0.5-1.2s-0.8-0.5-1.5-0.5c-0.6,0-1,0.1-1.3,0.4
		s-0.5,0.6-0.5,1c0,0.4,0.2,0.7,0.5,0.9s1,0.4,1.8,0.6s1.6,0.4,2.1,0.6c1.8,0.7,2.7,1.8,2.7,3.4c0,1.2-0.5,2.1-1.5,2.8
		s-2.3,1.1-3.8,1.1c-1.1,0-2-0.2-2.8-0.6s-1.5-0.9-1.9-1.6s-0.7-1.4-0.7-2.1h3.2c0,0.6,0.3,1.1,0.7,1.4s1,0.5,1.7,0.5
		c0.6,0,1.1-0.1,1.5-0.4S134.9,20.9,134.9,20.5z"/>
	<path class="st2" d="M146.2,24.2c-1.9,0-3.4-0.6-4.5-1.7s-1.8-2.7-1.8-4.6v-0.3c0-1.3,0.2-2.4,0.7-3.4s1.2-1.8,2.1-2.3
		s1.9-0.8,3.1-0.8c1.7,0,3.1,0.5,4.1,1.6s1.5,2.6,1.5,4.7v1.4h-8.1c0.1,0.8,0.4,1.5,1,2s1.2,0.8,2.1,0.8c1.3,0,2.3-0.5,3.1-1.4
		l1.7,1.9c-0.5,0.7-1.2,1.3-2.1,1.7S147.2,24.2,146.2,24.2z M145.8,13.8c-0.7,0-1.2,0.2-1.6,0.7s-0.7,1.1-0.8,2h4.7v-0.3
		c0-0.8-0.2-1.3-0.6-1.7S146.5,13.8,145.8,13.8z"/>
	<path class="st2" d="M160.7,24c-0.2-0.3-0.3-0.7-0.3-1.1c-0.8,0.9-1.9,1.4-3.2,1.4c-1.2,0-2.3-0.4-3.1-1.1s-1.2-1.6-1.2-2.7
		c0-1.3,0.5-2.4,1.5-3.1s2.4-1.1,4.3-1.1h1.6v-0.7c0-0.6-0.2-1.1-0.5-1.4s-0.8-0.5-1.4-0.5c-0.6,0-1,0.1-1.3,0.4s-0.5,0.6-0.5,1.1
		h-3.4c0-0.7,0.2-1.4,0.7-2s1.1-1.1,1.9-1.5s1.8-0.5,2.8-0.5c1.6,0,2.8,0.4,3.7,1.2s1.4,1.9,1.4,3.3v5.5c0,1.2,0.2,2.1,0.5,2.7V24
		H160.7z M157.9,21.6c0.5,0,1-0.1,1.4-0.3s0.7-0.5,0.9-0.9v-2.2h-1.3c-1.7,0-2.6,0.6-2.7,1.8l0,0.2c0,0.4,0.1,0.8,0.4,1
		S157.3,21.6,157.9,21.6z"/>
	<path class="st2" d="M173.3,14.5c-0.5-0.1-0.9-0.1-1.2-0.1c-1.3,0-2.1,0.4-2.5,1.3V24h-3.4V11.3h3.2l0.1,1.5
		c0.7-1.2,1.6-1.7,2.8-1.7c0.4,0,0.7,0.1,1.1,0.2L173.3,14.5z"/>
	<path class="st2" d="M180,21.5c0.6,0,1.1-0.2,1.5-0.5s0.6-0.8,0.6-1.4h3.2c0,0.9-0.2,1.6-0.7,2.4s-1.1,1.3-1.9,1.7
		s-1.7,0.6-2.7,0.6c-1.8,0-3.2-0.6-4.3-1.7s-1.6-2.7-1.6-4.8v-0.2c0-2,0.5-3.5,1.6-4.7s2.5-1.7,4.3-1.7c1.6,0,2.9,0.5,3.8,1.4
		s1.4,2.1,1.5,3.6h-3.2c0-0.7-0.2-1.2-0.6-1.6c-0.4-0.4-0.9-0.6-1.5-0.6c-0.8,0-1.4,0.3-1.8,0.9c-0.4,0.6-0.6,1.5-0.6,2.8v0.4
		c0,1.3,0.2,2.2,0.6,2.8S179.2,21.5,180,21.5z"/>
	<path class="st2" d="M190.5,12.7c0.9-1.1,2-1.6,3.4-1.6c2.8,0,4.1,1.6,4.2,4.8V24h-3.4v-8c0-0.7-0.2-1.3-0.5-1.6s-0.8-0.5-1.6-0.5
		c-1,0-1.7,0.4-2.2,1.1v9h-3.4V6h3.4V12.7z"/>
</g>
<g>
	<path class="st0" d="M48.7,17.6c0-1.9,0.5-3.5,1.4-4.7s2.2-1.8,3.7-1.8c1.4,0,2.5,0.5,3.2,1.4l0.1-1.2h3.1v12.3
		c0,1.1-0.3,2.1-0.8,2.9s-1.2,1.4-2.1,1.9s-2,0.6-3.2,0.6c-0.9,0-1.8-0.2-2.7-0.6s-1.6-0.8-2-1.4l1.5-2.1c0.8,0.9,1.9,1.4,3.1,1.4
		c0.9,0,1.6-0.2,2.1-0.7s0.8-1.2,0.8-2v-0.7c-0.8,0.9-1.8,1.3-3.1,1.3c-1.5,0-2.8-0.6-3.7-1.8s-1.4-2.8-1.4-4.7V17.6z M52.1,17.8
		c0,1.2,0.2,2.1,0.7,2.7c0.5,0.7,1.1,1,1.9,1c1,0,1.8-0.4,2.2-1.2V15c-0.5-0.8-1.2-1.2-2.2-1.2c-0.8,0-1.5,0.3-1.9,1
		S52.1,16.5,52.1,17.8z"/>
	<path class="st0" d="M62.9,8c0-0.5,0.2-0.9,0.5-1.3s0.8-0.5,1.4-0.5c0.6,0,1,0.2,1.4,0.5s0.5,0.7,0.5,1.3c0,0.5-0.2,0.9-0.5,1.3
		s-0.8,0.5-1.4,0.5s-1-0.2-1.4-0.5S62.9,8.6,62.9,8z M66.5,24h-3.4V11.3h3.4V24z"/>
	<path class="st0" d="M73.3,8.2v3.1h2.2v2.5h-2.2v6.3c0,0.5,0.1,0.8,0.3,1s0.5,0.3,1,0.3c0.4,0,0.7,0,1-0.1v2.6
		c-0.7,0.2-1.3,0.3-2.1,0.3c-2.4,0-3.6-1.2-3.6-3.6v-6.8h-1.9v-2.5h1.9V8.2H73.3z"/>
	<path class="st0" d="M80.7,12.7c0.9-1.1,2-1.6,3.4-1.6c2.8,0,4.1,1.6,4.2,4.8V24h-3.4v-8c0-0.7-0.2-1.3-0.5-1.6s-0.8-0.5-1.6-0.5
		c-1,0-1.7,0.4-2.2,1.1v9h-3.4V6h3.4V12.7z"/>
	<path class="st0" d="M98.4,22.7c-0.8,1-2,1.5-3.5,1.5c-1.4,0-2.4-0.4-3.1-1.2s-1.1-1.9-1.1-3.4v-8.3h3.4v8.2c0,1.3,0.6,2,1.8,2
		c1.1,0,1.9-0.4,2.4-1.2v-9h3.4V24h-3.2L98.4,22.7z"/>
	<path class="st0" d="M115.7,17.8c0,2-0.4,3.6-1.3,4.8s-2.1,1.7-3.6,1.7c-1.4,0-2.5-0.5-3.3-1.6l-0.2,1.3h-3V6h3.4v6.5
		c0.8-0.9,1.8-1.4,3.1-1.4c1.5,0,2.8,0.6,3.6,1.7s1.3,2.7,1.3,4.8V17.8z M112.3,17.5c0-1.3-0.2-2.2-0.6-2.8s-1-0.9-1.8-0.9
		c-1.1,0-1.8,0.4-2.2,1.3v5c0.4,0.9,1.2,1.3,2.3,1.3c1.1,0,1.8-0.5,2.2-1.6C112.2,19.4,112.3,18.6,112.3,17.5z"/>
</g>
<g>
	<path class="st3" d="M24.1,22.3l-3.5-3.5c0.8-1.2,1.3-2.6,1.3-4.1c0-1-0.2-1.9-0.6-2.8c-0.4-0.9-0.9-1.7-1.5-2.3
		c-0.6-0.6-1.4-1.2-2.3-1.5c-0.9-0.4-1.8-0.6-2.8-0.6c-1,0-1.9,0.2-2.8,0.6C11,8.4,10.2,8.9,9.6,9.6c-0.6,0.6-1.2,1.4-1.5,2.3
		c-0.4,0.9-0.6,1.8-0.6,2.8c0,1,0.2,1.9,0.6,2.8c0.4,0.9,0.9,1.7,1.5,2.3c0.6,0.6,1.4,1.2,2.3,1.5c0.9,0.4,1.8,0.6,2.8,0.6
		c1.5,0,2.9-0.4,4.1-1.3l3.5,3.5c0.2,0.3,0.6,0.4,0.9,0.4c0.4,0,0.7-0.1,0.9-0.4c0.3-0.3,0.4-0.6,0.4-0.9
		C24.5,22.8,24.4,22.5,24.1,22.3z M17.9,17.9c-0.9,0.9-2,1.3-3.2,1.3c-1.3,0-2.3-0.4-3.2-1.3c-0.9-0.9-1.3-2-1.3-3.2
		c0-1.3,0.4-2.3,1.3-3.2c0.9-0.9,2-1.3,3.2-1.3c1.3,0,2.3,0.4,3.2,1.3c0.9,0.9,1.3,2,1.3,3.2C19.3,16,18.8,17,17.9,17.9z"/>
</g>
</svg>
